HIERARCHY
ROOT Hips
{
	OFFSET 0.027329 -0.436096 0.279869
	CHANNELS 6 Xposition Yposition Zposition Zrotation Yrotation Xrotation 
	JOINT LeftUpLeg
	{
		OFFSET 1.363060 -1.794630 0.000000
		CHANNELS 3 Zrotation Yrotation Xrotation
		JOINT LeftLeg
		{
			OFFSET 2.448070 -6.726130 0.000295
			CHANNELS 3 Zrotation Yrotation Xrotation
			JOINT LeftFoot
			{
				OFFSET 2.562200 -7.039590 0.000036
				CHANNELS 3 Zrotation Yrotation Xrotation
				JOINT LeftToeBase
				{
					OFFSET 0.157640 -0.433110 2.322550
					CHANNELS 3 Zrotation Yrotation Xrotation
				}
			}
		}
	}
	JOINT RightUpLeg
	{
		OFFSET -1.305520 -1.794630 0.000000
		CHANNELS 3 Zrotation Yrotation Xrotation
		JOINT RightLeg
		{
			OFFSET -2.542340 -6.985620 -0.000396
			CHANNELS 3 Zrotation Yrotation Xrotation
			JOINT RightFoot
			{
				OFFSET -2.568260 -7.056230 -0.000045
				CHANNELS 3 Zrotation Yrotation Xrotation
				JOINT RightToeBase
				{
					OFFSET -0.164730 -0.452590 2.363150
					CHANNELS 3 Zrotation Yrotation Xrotation
				}
			}
		}
	}
	JOINT Spine
	{
		OFFSET 0.028270 2.035590 0.000000
		CHANNELS 3 Zrotation Yrotation Xrotation
		JOINT Spine1
		{
			OFFSET 0.056720 2.048850 -0.042750
			CHANNELS 3 Zrotation Yrotation Xrotation
			JOINT Neck1
			{
				OFFSET -0.054170 1.746240 0.172020
				CHANNELS 3 Zrotation Yrotation Xrotation
				JOINT Head
				{
					OFFSET 0.104070 1.761360 -0.123970
					CHANNELS 3 Zrotation Yrotation Xrotation
				}
			}
			JOINT LeftArm
			{
				OFFSET 3.362410 1.200890 -0.311211
				CHANNELS 3 Zrotation Yrotation Xrotation
				JOINT LeftForeArm
				{
					OFFSET 4.983000 0.000197 0.000166
					CHANNELS 3 Zrotation Yrotation Xrotation
					JOINT LeftHand
					{
						OFFSET 3.483560 0.000000 0.000019
						CHANNELS 3 Zrotation Yrotation Xrotation
						JOINT LeftHandIndex1
						{
							OFFSET 0.715260 0.000000 0.000000
							CHANNELS 3 Zrotation Yrotation Xrotation
						}
					}
				}
			}
			JOINT RightArm
			{
				OFFSET -3.136600 1.374050 -0.404651
				CHANNELS 3 Zrotation Yrotation Xrotation
				JOINT RightForeArm
				{
					OFFSET -5.241900 -0.000059 -0.000166
					CHANNELS 3 Zrotation Yrotation Xrotation
					JOINT RightHand
					{
						OFFSET -3.444170 0.000000 -0.000020
						CHANNELS 3 Zrotation Yrotation Xrotation
						JOINT RightHandIndex1
						{
							OFFSET -0.622530 0.000000 0.000000
							CHANNELS 3 Zrotation Yrotation Xrotation
						}
					}
				}
			}
		}
	}
}
MOTION
Frames: 6
Frame Time: 0.016667
0.015994 17.238022 -0.047513 0.985691 1.227256 2.701416 -19.327882 -0.617343 -29.868012 2.512483 13.510954 45.236931 -2.876558 0.572531 1.157077 0.000000 -0.000000 -0.000000 21.829705 -3.069744 -13.066881 -3.836303 -1.932278 22.409333 -0.625152 5.025081 -14.888742 -0.000000 -0.000000 -0.000000 -1.148751 -0.784041 5.944898 0.000000 -0.000000 0.000000 1.461873 -1.710021 -7.877150 0.000000 0.000000 -0.000000 -81.608193 -6.232299 38.670187 0.971955 -2.770532 0.138975 -1.672418 0.377818 -0.686590 -0.000000 -0.000000 -0.000000 76.466912 21.105738 29.040516 -0.896302 16.805316 0.491404 1.333801 0.926086 1.867944 0.000000 0.000000 0.000000 
0.036196 17.322338 -0.102608 1.008687 1.460948 1.965594 -18.210264 0.191469 -29.869485 4.429070 14.732612 54.666427 -1.930963 0.486098 1.413433 -0.000000 0.000000 0.000000 21.414536 -1.513213 -15.620986 -4.032125 -4.771079 25.182210 -0.533969 4.879526 -13.841358 -0.000000 -0.000000 0.000000 -1.196469 -1.255277 6.174897 -0.000000 0.000000 -0.000000 2.097693 -2.096631 -7.268541 -0.000000 -0.000000 0.000000 -81.542959 -8.706741 41.424426 0.971952 -2.802102 0.139166 0.000090 0.000165 0.000002 0.000000 -0.000000 0.000000 78.202179 17.680996 26.729759 -0.922885 14.914344 0.404104 -0.000096 -0.000178 -0.000001 -0.000000 0.000000 -0.000000 
0.058503 17.364498 -0.161494 1.008685 1.456522 1.965517 -18.210263 0.191469 -29.869484 4.429070 14.732611 54.666427 -1.930965 0.486098 1.413432 0.000000 0.000000 -0.000000 21.414537 -1.513213 -15.620986 -4.032125 -4.771079 25.182209 -0.533968 4.879526 -13.841358 0.000000 0.000000 0.000000 -1.196469 -1.255277 6.174897 0.000000 -0.000000 0.000000 2.097693 -2.096631 -7.268541 -0.000000 0.000000 -0.000000 -81.542959 -8.706741 41.424426 0.971952 -2.802101 0.139165 0.000090 0.000165 0.000002 0.000000 0.000000 -0.000000 78.202178 17.680996 26.729757 -0.922884 14.914346 0.404104 -0.000096 -0.000178 -0.000001 0.000000 0.000000 0.000000 
0.085663 17.405281 -0.238445 0.985686 1.214332 2.701194 -19.327881 -0.617343 -29.868013 2.512483 13.510956 45.236932 -2.876557 0.572531 1.157076 0.000000 0.000000 0.000000 21.829704 -3.069744 -13.066882 -3.836304 -1.932277 22.409333 -0.625152 5.025081 -14.888742 0.000000 -0.000000 0.000000 -1.148751 -0.784041 5.944898 0.000000 -0.000000 -0.000000 1.461874 -1.710021 -7.877150 -0.000000 0.000000 -0.000000 -81.608194 -6.232300 38.670189 0.971955 -2.770532 0.138975 -1.672418 0.377818 -0.686592 0.000000 0.000000 -0.000000 76.466912 21.105738 29.040516 -0.896301 16.805316 0.491406 1.333800 0.926087 1.867945 0.000000 0.000000 -0.000000 
0.124379 17.445383 -0.306136 0.824512 0.835015 2.925871 -19.487548 -0.913140 -29.857977 0.294561 11.130404 29.688988 -4.378286 0.618471 0.900726 0.000000 0.000000 -0.000000 21.987867 -5.604241 -9.493193 -3.437900 -0.422002 19.636453 -0.982873 5.409865 -16.133109 -0.000000 0.000000 -0.000000 -0.814743 0.098889 5.545179 0.000000 -0.000000 0.000000 0.364487 -1.133033 -8.033902 0.000000 -0.000000 0.000000 -82.065041 -2.172944 34.120312 0.971977 -2.738962 0.137638 -4.127140 1.118929 -1.830111 -0.000000 -0.000000 -0.000000 74.959347 22.275153 31.179726 -0.885923 19.963837 0.521434 3.313056 2.233526 4.024052 0.000000 0.000000 0.000000 
0.171435 17.434803 -0.360904 -0.166997 0.027492 3.312652 -19.145838 -1.447476 -29.438818 -0.056947 7.921784 15.093813 -5.657283 0.816813 1.220886 -0.000000 0.000000 0.000000 22.452359 -7.548531 -8.275119 -2.823418 -0.465399 20.326400 -1.789101 6.960797 -17.504745 -0.000000 0.000000 0.000000 0.606567 1.065636 5.194671 0.000000 -0.000000 -0.000000 -0.673792 -0.820798 -8.181436 0.000000 0.000000 0.000000 -83.313381 1.012852 30.582090 0.972004 -2.571464 0.133971 -5.372601 2.102063 -2.781913 -0.000000 0.000000 0.000000 72.283498 24.670696 33.040331 -0.856845 22.738213 0.590725 4.560591 2.835223 4.360237 -0.000000 0.000000 -0.000000 
